<svg preserveAspectRatio="none" overflow="visible" style="display: block;" width="46" height="46" viewBox="0 0 46 46" fill="none" xmlns="http://www.w3.org/2000/svg">
<g id="Iconography">
<g id="Vector">
<mask id="path-1-inside-1_0_601" fill="white">
<path d="M11.487 2.875H15.5868L15.6145 2.88997C16.1271 3.16444 16.7268 3.30061 16.8801 4.03925C17.0671 4.94023 16.9606 6.28492 16.9758 7.22868C17.4494 7.21005 17.9235 7.23308 18.3982 7.23415L21.4064 7.23446C23.926 7.23399 26.5135 7.20459 29.0261 7.2369C29.0369 6.57387 29.0343 5.91042 29.0298 5.24838C29.0253 4.57748 28.9997 3.85987 29.5263 3.34499C29.7767 3.1002 30.1171 3.04619 30.3794 2.875H34.4534C35.0093 3.13352 35.7704 3.33507 35.9535 4.03193C36.1607 4.82065 36.0756 6.38891 36.058 7.23214C36.6331 7.19421 37.2313 7.2345 37.8109 7.2321C39.3306 7.22593 40.5993 7.09956 41.8327 8.12472C43.3728 9.40505 43.1092 11.0203 43.1059 12.7894L43.108 37.9098C43.108 38.4294 43.1243 39.0679 43.0583 39.574C42.9535 40.4369 42.5793 41.2486 41.9855 41.9017C41.5839 42.344 41.07 42.7229 40.4917 42.9045C40.3991 42.9332 39.9783 43.0794 39.9124 43.125H6.10041C5.97404 43.0594 5.67388 42.9595 5.52516 42.9076C4.19573 42.4615 3.16036 41.1334 2.97302 39.7979C2.82963 38.7758 2.88577 37.5257 2.8861 36.4738L2.88458 11.4775C2.88624 10.1796 2.99688 9.22495 4.0095 8.25494C5.13373 7.17802 6.33192 7.22668 7.7831 7.23022L9.92987 7.2367C9.94939 6.31556 9.8459 4.99565 10.019 4.12608C10.178 3.32742 10.9485 3.17133 11.4574 2.8915L11.487 2.875ZM40.4774 40.6199C41.2679 39.7019 41.071 38.7825 41.1007 37.6631C41.1087 37.3658 41.1008 37.0645 41.1008 36.7668L41.0985 22.9603C41.0985 21.4813 41.1281 19.895 41.0968 18.4242L7.2121 18.4102C6.79829 18.4104 5.218 18.465 4.92269 18.3826C4.87564 19.9468 4.90953 21.6523 4.90964 23.2246L4.91136 36.844C4.91051 37.3648 4.91848 37.8978 4.90775 38.4204C4.89033 39.2684 4.93276 40.0309 5.56621 40.6854C6.029 41.1636 6.51711 41.1753 7.14813 41.1784C9.49056 41.1766 11.8346 41.1732 14.1767 41.173L38.1554 41.1763C39.0582 41.176 39.8159 41.3237 40.4774 40.6199ZM9.94756 9.20671C9.23497 9.19763 6.65238 9.129 6.10031 9.27023C5.83838 9.33949 5.59942 9.47278 5.40657 9.65728C4.76475 10.2634 4.90661 11.1982 4.90692 12.0319L4.91223 16.44L36.7777 16.4494C38.1986 16.4494 39.68 16.4302 41.0952 16.4571L41.1002 12.6779C41.1012 11.8123 41.2875 10.3245 40.6158 9.67717C40.4413 9.50902 40.2023 9.35788 39.9656 9.28823C38.7966 9.05066 37.2269 9.28143 36.0696 9.19114C36.0762 10.0157 36.172 10.8462 35.5143 11.4699C34.7615 12.1838 33.816 12.1232 32.8507 12.1251L31.3539 12.1262C29.1771 12.118 29.0007 11.0183 29.0395 9.29106L29.0418 9.20211L20.5594 9.19028L18.3216 9.19665C17.9758 9.19791 17.3019 9.21783 16.9841 9.16489C16.976 9.49522 16.9799 9.83106 16.9695 10.165C16.9269 11.5376 16.0252 12.1628 14.6417 12.1244C12.6726 12.0697 9.76237 12.6484 9.93623 9.72461C9.94548 9.56963 9.94136 9.36964 9.94756 9.20671ZM12.1053 4.8204C12.0568 6.53893 12.0904 8.40615 12.0912 10.137C13.0497 10.1463 14.0082 10.15 14.9668 10.1479C14.9269 9.64003 14.9575 9.07606 14.9497 8.56228C14.9311 7.34169 14.9873 6.0613 14.9394 4.84526L13.2163 4.84592C12.8925 4.84698 12.4116 4.86803 12.1053 4.8204ZM34.0759 10.1384C34.0082 8.41531 34.1208 6.57221 34.0623 4.84714C33.4355 4.84097 32.8086 4.8389 32.1818 4.84094C31.8383 4.84158 31.2855 4.85847 30.9618 4.81705C30.9052 6.52744 31.0267 8.48174 30.9366 10.1272C31.611 10.1471 32.2857 10.1546 32.9604 10.1496C33.2467 10.1499 33.8098 10.1639 34.0759 10.1384Z"/>
<path d="M22.2674 20.9275C23.4372 20.8468 23.5967 21.8819 24.0655 22.732C24.6232 23.7433 25.0981 24.8195 25.6623 25.8301C26.0136 25.9237 26.7226 26.0104 27.1032 26.0652L29.554 26.417C29.9406 26.4725 30.3779 26.5146 30.7479 26.6099C31.2911 26.7498 31.7157 27.2633 31.487 27.8109C31.352 28.1477 31.0749 28.4003 30.8113 28.6468C29.7408 29.6473 28.6264 30.6172 27.5844 31.645C27.6157 31.957 27.7457 32.5462 27.8064 32.8694L28.269 35.323C28.3193 35.591 28.4669 36.2903 28.4754 36.5412C28.48 36.7137 28.4435 36.885 28.3685 37.0417C27.8052 38.2139 26.348 37.1513 25.5583 36.7707C24.5683 36.2935 23.6073 35.7622 22.6093 35.2926C22.1011 35.1635 18.2583 37.6589 17.4039 37.5953C16.0492 37.4612 16.6391 36.0646 16.7407 35.2801C16.8919 34.113 17.3144 32.7628 17.392 31.618C17.1857 31.3913 16.7457 31.0047 16.5004 30.7779L14.6362 29.07C14.2748 28.7389 13.5728 28.1926 13.4761 27.7291C13.4223 27.4673 13.482 27.1956 13.6414 26.9775C13.7249 26.8626 13.9238 26.6884 14.067 26.6569C15.2785 26.3906 16.5527 26.2809 17.7787 26.0851C18.3104 26.0002 18.81 25.9388 19.3293 25.8443C20.1341 24.3828 20.8259 22.8282 21.6499 21.3743C21.8025 21.105 21.9736 21.0194 22.2674 20.9275ZM16.6202 28.2074C17.4413 28.8819 18.1893 29.6894 19.0002 30.3793C19.7432 31.0114 19.4082 31.9065 19.263 32.7235C19.1321 33.4352 19.0097 34.1483 18.8961 34.8627C19.6544 34.4878 21.8465 33.1886 22.5351 33.1438C23.3577 33.3181 25.2125 34.4536 26.1092 34.86L25.7473 32.7921C25.3982 30.8477 25.2634 31.0274 26.7637 29.6688L28.3632 28.2069C27.635 28.0944 26.9049 27.9932 26.1733 27.9034C25.6423 27.8348 24.4925 27.7907 24.2004 27.3272C23.7589 26.6265 23.4381 25.8157 23.0235 25.0941C22.8585 24.8067 22.6961 24.3418 22.4636 24.1198L21.3904 26.2115C20.571 27.8064 20.6073 27.7174 18.6824 27.9276C18.0353 27.9982 17.2764 28.1276 16.6202 28.2074Z"/>
</mask>
<path d="M11.487 2.875H15.5868L15.6145 2.88997C16.1271 3.16444 16.7268 3.30061 16.8801 4.03925C17.0671 4.94023 16.9606 6.28492 16.9758 7.22868C17.4494 7.21005 17.9235 7.23308 18.3982 7.23415L21.4064 7.23446C23.926 7.23399 26.5135 7.20459 29.0261 7.2369C29.0369 6.57387 29.0343 5.91042 29.0298 5.24838C29.0253 4.57748 28.9997 3.85987 29.5263 3.34499C29.7767 3.1002 30.1171 3.04619 30.3794 2.875H34.4534C35.0093 3.13352 35.7704 3.33507 35.9535 4.03193C36.1607 4.82065 36.0756 6.38891 36.058 7.23214C36.6331 7.19421 37.2313 7.2345 37.8109 7.2321C39.3306 7.22593 40.5993 7.09956 41.8327 8.12472C43.3728 9.40505 43.1092 11.0203 43.1059 12.7894L43.108 37.9098C43.108 38.4294 43.1243 39.0679 43.0583 39.574C42.9535 40.4369 42.5793 41.2486 41.9855 41.9017C41.5839 42.344 41.07 42.7229 40.4917 42.9045C40.3991 42.9332 39.9783 43.0794 39.9124 43.125H6.10041C5.97404 43.0594 5.67388 42.9595 5.52516 42.9076C4.19573 42.4615 3.16036 41.1334 2.97302 39.7979C2.82963 38.7758 2.88577 37.5257 2.8861 36.4738L2.88458 11.4775C2.88624 10.1796 2.99688 9.22495 4.0095 8.25494C5.13373 7.17802 6.33192 7.22668 7.7831 7.23022L9.92987 7.2367C9.94939 6.31556 9.8459 4.99565 10.019 4.12608C10.178 3.32742 10.9485 3.17133 11.4574 2.8915L11.487 2.875ZM40.4774 40.6199C41.2679 39.7019 41.071 38.7825 41.1007 37.6631C41.1087 37.3658 41.1008 37.0645 41.1008 36.7668L41.0985 22.9603C41.0985 21.4813 41.1281 19.895 41.0968 18.4242L7.2121 18.4102C6.79829 18.4104 5.218 18.465 4.92269 18.3826C4.87564 19.9468 4.90953 21.6523 4.90964 23.2246L4.91136 36.844C4.91051 37.3648 4.91848 37.8978 4.90775 38.4204C4.89033 39.2684 4.93276 40.0309 5.56621 40.6854C6.029 41.1636 6.51711 41.1753 7.14813 41.1784C9.49056 41.1766 11.8346 41.1732 14.1767 41.173L38.1554 41.1763C39.0582 41.176 39.8159 41.3237 40.4774 40.6199ZM9.94756 9.20671C9.23497 9.19763 6.65238 9.129 6.10031 9.27023C5.83838 9.33949 5.59942 9.47278 5.40657 9.65728C4.76475 10.2634 4.90661 11.1982 4.90692 12.0319L4.91223 16.44L36.7777 16.4494C38.1986 16.4494 39.68 16.4302 41.0952 16.4571L41.1002 12.6779C41.1012 11.8123 41.2875 10.3245 40.6158 9.67717C40.4413 9.50902 40.2023 9.35788 39.9656 9.28823C38.7966 9.05066 37.2269 9.28143 36.0696 9.19114C36.0762 10.0157 36.172 10.8462 35.5143 11.4699C34.7615 12.1838 33.816 12.1232 32.8507 12.1251L31.3539 12.1262C29.1771 12.118 29.0007 11.0183 29.0395 9.29106L29.0418 9.20211L20.5594 9.19028L18.3216 9.19665C17.9758 9.19791 17.3019 9.21783 16.9841 9.16489C16.976 9.49522 16.9799 9.83106 16.9695 10.165C16.9269 11.5376 16.0252 12.1628 14.6417 12.1244C12.6726 12.0697 9.76237 12.6484 9.93623 9.72461C9.94548 9.56963 9.94136 9.36964 9.94756 9.20671ZM12.1053 4.8204C12.0568 6.53893 12.0904 8.40615 12.0912 10.137C13.0497 10.1463 14.0082 10.15 14.9668 10.1479C14.9269 9.64003 14.9575 9.07606 14.9497 8.56228C14.9311 7.34169 14.9873 6.0613 14.9394 4.84526L13.2163 4.84592C12.8925 4.84698 12.4116 4.86803 12.1053 4.8204ZM34.0759 10.1384C34.0082 8.41531 34.1208 6.57221 34.0623 4.84714C33.4355 4.84097 32.8086 4.8389 32.1818 4.84094C31.8383 4.84158 31.2855 4.85847 30.9618 4.81705C30.9052 6.52744 31.0267 8.48174 30.9366 10.1272C31.611 10.1471 32.2857 10.1546 32.9604 10.1496C33.2467 10.1499 33.8098 10.1639 34.0759 10.1384Z" fill="#FF751F"/>
<path d="M22.2674 20.9275C23.4372 20.8468 23.5967 21.8819 24.0655 22.732C24.6232 23.7433 25.0981 24.8195 25.6623 25.8301C26.0136 25.9237 26.7226 26.0104 27.1032 26.0652L29.554 26.417C29.9406 26.4725 30.3779 26.5146 30.7479 26.6099C31.2911 26.7498 31.7157 27.2633 31.487 27.8109C31.352 28.1477 31.0749 28.4003 30.8113 28.6468C29.7408 29.6473 28.6264 30.6172 27.5844 31.645C27.6157 31.957 27.7457 32.5462 27.8064 32.8694L28.269 35.323C28.3193 35.591 28.4669 36.2903 28.4754 36.5412C28.48 36.7137 28.4435 36.885 28.3685 37.0417C27.8052 38.2139 26.348 37.1513 25.5583 36.7707C24.5683 36.2935 23.6073 35.7622 22.6093 35.2926C22.1011 35.1635 18.2583 37.6589 17.4039 37.5953C16.0492 37.4612 16.6391 36.0646 16.7407 35.2801C16.8919 34.113 17.3144 32.7628 17.392 31.618C17.1857 31.3913 16.7457 31.0047 16.5004 30.7779L14.6362 29.07C14.2748 28.7389 13.5728 28.1926 13.4761 27.7291C13.4223 27.4673 13.482 27.1956 13.6414 26.9775C13.7249 26.8626 13.9238 26.6884 14.067 26.6569C15.2785 26.3906 16.5527 26.2809 17.7787 26.0851C18.3104 26.0002 18.81 25.9388 19.3293 25.8443C20.1341 24.3828 20.8259 22.8282 21.6499 21.3743C21.8025 21.105 21.9736 21.0194 22.2674 20.9275ZM16.6202 28.2074C17.4413 28.8819 18.1893 29.6894 19.0002 30.3793C19.7432 31.0114 19.4082 31.9065 19.263 32.7235C19.1321 33.4352 19.0097 34.1483 18.8961 34.8627C19.6544 34.4878 21.8465 33.1886 22.5351 33.1438C23.3577 33.3181 25.2125 34.4536 26.1092 34.86L25.7473 32.7921C25.3982 30.8477 25.2634 31.0274 26.7637 29.6688L28.3632 28.2069C27.635 28.0944 26.9049 27.9932 26.1733 27.9034C25.6423 27.8348 24.4925 27.7907 24.2004 27.3272C23.7589 26.6265 23.4381 25.8157 23.0235 25.0941C22.8585 24.8067 22.6961 24.3418 22.4636 24.1198L21.3904 26.2115C20.571 27.8064 20.6073 27.7174 18.6824 27.9276C18.0353 27.9982 17.2764 28.1276 16.6202 28.2074Z" fill="#FF751F"/>
<path d="M11.487 2.875H15.5868L15.6145 2.88997C16.1271 3.16444 16.7268 3.30061 16.8801 4.03925C17.0671 4.94023 16.9606 6.28492 16.9758 7.22868C17.4494 7.21005 17.9235 7.23308 18.3982 7.23415L21.4064 7.23446C23.926 7.23399 26.5135 7.20459 29.0261 7.2369C29.0369 6.57387 29.0343 5.91042 29.0298 5.24838C29.0253 4.57748 28.9997 3.85987 29.5263 3.34499C29.7767 3.1002 30.1171 3.04619 30.3794 2.875H34.4534C35.0093 3.13352 35.7704 3.33507 35.9535 4.03193C36.1607 4.82065 36.0756 6.38891 36.058 7.23214C36.6331 7.19421 37.2313 7.2345 37.8109 7.2321C39.3306 7.22593 40.5993 7.09956 41.8327 8.12472C43.3728 9.40505 43.1092 11.0203 43.1059 12.7894L43.108 37.9098C43.108 38.4294 43.1243 39.0679 43.0583 39.574C42.9535 40.4369 42.5793 41.2486 41.9855 41.9017C41.5839 42.344 41.07 42.7229 40.4917 42.9045C40.3991 42.9332 39.9783 43.0794 39.9124 43.125H6.10041C5.97404 43.0594 5.67388 42.9595 5.52516 42.9076C4.19573 42.4615 3.16036 41.1334 2.97302 39.7979C2.82963 38.7758 2.88577 37.5257 2.8861 36.4738L2.88458 11.4775C2.88624 10.1796 2.99688 9.22495 4.0095 8.25494C5.13373 7.17802 6.33192 7.22668 7.7831 7.23022L9.92987 7.2367C9.94939 6.31556 9.8459 4.99565 10.019 4.12608C10.178 3.32742 10.9485 3.17133 11.4574 2.8915L11.487 2.875ZM40.4774 40.6199C41.2679 39.7019 41.071 38.7825 41.1007 37.6631C41.1087 37.3658 41.1008 37.0645 41.1008 36.7668L41.0985 22.9603C41.0985 21.4813 41.1281 19.895 41.0968 18.4242L7.2121 18.4102C6.79829 18.4104 5.218 18.465 4.92269 18.3826C4.87564 19.9468 4.90953 21.6523 4.90964 23.2246L4.91136 36.844C4.91051 37.3648 4.91848 37.8978 4.90775 38.4204C4.89033 39.2684 4.93276 40.0309 5.56621 40.6854C6.029 41.1636 6.51711 41.1753 7.14813 41.1784C9.49056 41.1766 11.8346 41.1732 14.1767 41.173L38.1554 41.1763C39.0582 41.176 39.8159 41.3237 40.4774 40.6199ZM9.94756 9.20671C9.23497 9.19763 6.65238 9.129 6.10031 9.27023C5.83838 9.33949 5.59942 9.47278 5.40657 9.65728C4.76475 10.2634 4.90661 11.1982 4.90692 12.0319L4.91223 16.44L36.7777 16.4494C38.1986 16.4494 39.68 16.4302 41.0952 16.4571L41.1002 12.6779C41.1012 11.8123 41.2875 10.3245 40.6158 9.67717C40.4413 9.50902 40.2023 9.35788 39.9656 9.28823C38.7966 9.05066 37.2269 9.28143 36.0696 9.19114C36.0762 10.0157 36.172 10.8462 35.5143 11.4699C34.7615 12.1838 33.816 12.1232 32.8507 12.1251L31.3539 12.1262C29.1771 12.118 29.0007 11.0183 29.0395 9.29106L29.0418 9.20211L20.5594 9.19028L18.3216 9.19665C17.9758 9.19791 17.3019 9.21783 16.9841 9.16489C16.976 9.49522 16.9799 9.83106 16.9695 10.165C16.9269 11.5376 16.0252 12.1628 14.6417 12.1244C12.6726 12.0697 9.76237 12.6484 9.93623 9.72461C9.94548 9.56963 9.94136 9.36964 9.94756 9.20671ZM12.1053 4.8204C12.0568 6.53893 12.0904 8.40615 12.0912 10.137C13.0497 10.1463 14.0082 10.15 14.9668 10.1479C14.9269 9.64003 14.9575 9.07606 14.9497 8.56228C14.9311 7.34169 14.9873 6.0613 14.9394 4.84526L13.2163 4.84592C12.8925 4.84698 12.4116 4.86803 12.1053 4.8204ZM34.0759 10.1384C34.0082 8.41531 34.1208 6.57221 34.0623 4.84714C33.4355 4.84097 32.8086 4.8389 32.1818 4.84094C31.8383 4.84158 31.2855 4.85847 30.9618 4.81705C30.9052 6.52744 31.0267 8.48174 30.9366 10.1272C31.611 10.1471 32.2857 10.1546 32.9604 10.1496C33.2467 10.1499 33.8098 10.1639 34.0759 10.1384Z" stroke="#FFE3D2" stroke-width="0.03125" mask="url(#path-1-inside-1_0_601)"/>
<path d="M22.2674 20.9275C23.4372 20.8468 23.5967 21.8819 24.0655 22.732C24.6232 23.7433 25.0981 24.8195 25.6623 25.8301C26.0136 25.9237 26.7226 26.0104 27.1032 26.0652L29.554 26.417C29.9406 26.4725 30.3779 26.5146 30.7479 26.6099C31.2911 26.7498 31.7157 27.2633 31.487 27.8109C31.352 28.1477 31.0749 28.4003 30.8113 28.6468C29.7408 29.6473 28.6264 30.6172 27.5844 31.645C27.6157 31.957 27.7457 32.5462 27.8064 32.8694L28.269 35.323C28.3193 35.591 28.4669 36.2903 28.4754 36.5412C28.48 36.7137 28.4435 36.885 28.3685 37.0417C27.8052 38.2139 26.348 37.1513 25.5583 36.7707C24.5683 36.2935 23.6073 35.7622 22.6093 35.2926C22.1011 35.1635 18.2583 37.6589 17.4039 37.5953C16.0492 37.4612 16.6391 36.0646 16.7407 35.2801C16.8919 34.113 17.3144 32.7628 17.392 31.618C17.1857 31.3913 16.7457 31.0047 16.5004 30.7779L14.6362 29.07C14.2748 28.7389 13.5728 28.1926 13.4761 27.7291C13.4223 27.4673 13.482 27.1956 13.6414 26.9775C13.7249 26.8626 13.9238 26.6884 14.067 26.6569C15.2785 26.3906 16.5527 26.2809 17.7787 26.0851C18.3104 26.0002 18.81 25.9388 19.3293 25.8443C20.1341 24.3828 20.8259 22.8282 21.6499 21.3743C21.8025 21.105 21.9736 21.0194 22.2674 20.9275ZM16.6202 28.2074C17.4413 28.8819 18.1893 29.6894 19.0002 30.3793C19.7432 31.0114 19.4082 31.9065 19.263 32.7235C19.1321 33.4352 19.0097 34.1483 18.8961 34.8627C19.6544 34.4878 21.8465 33.1886 22.5351 33.1438C23.3577 33.3181 25.2125 34.4536 26.1092 34.86L25.7473 32.7921C25.3982 30.8477 25.2634 31.0274 26.7637 29.6688L28.3632 28.2069C27.635 28.0944 26.9049 27.9932 26.1733 27.9034C25.6423 27.8348 24.4925 27.7907 24.2004 27.3272C23.7589 26.6265 23.4381 25.8157 23.0235 25.0941C22.8585 24.8067 22.6961 24.3418 22.4636 24.1198L21.3904 26.2115C20.571 27.8064 20.6073 27.7174 18.6824 27.9276C18.0353 27.9982 17.2764 28.1276 16.6202 28.2074Z" stroke="#FFE3D2" stroke-width="0.03125" mask="url(#path-1-inside-1_0_601)"/>
</g>
</g>
</svg>
