<svg preserveAspectRatio="none" overflow="visible" style="display: block;" width="46" height="46" viewBox="0 0 46 46" fill="none" xmlns="http://www.w3.org/2000/svg">
<g id="Iconography">
<path id="Vector" d="M45.3821 26.2309C45.2211 26.3517 45.0378 26.4396 44.8427 26.4896C44.6477 26.5395 44.4447 26.5506 44.2454 26.5221C44.0461 26.4937 43.8543 26.4262 43.6811 26.3236C43.5079 26.221 43.3565 26.0853 43.2357 25.9243C42.3116 24.6821 41.1088 23.6743 39.7241 22.982C38.3394 22.2896 36.8114 21.932 35.2633 21.9381C34.9618 21.938 34.667 21.8491 34.4158 21.6824C34.1646 21.5157 33.9681 21.2787 33.8508 21.0009C33.7713 20.8123 33.7303 20.6096 33.7303 20.4049C33.7303 20.2002 33.7713 19.9975 33.8508 19.8089C33.9681 19.5311 34.1646 19.294 34.4158 19.1274C34.667 18.9607 34.9618 18.8718 35.2633 18.8717C36.1235 18.8717 36.9665 18.6303 37.6965 18.1752C38.4264 17.72 39.0141 17.0693 39.3928 16.2969C39.7714 15.5245 39.9259 14.6613 39.8386 13.8055C39.7513 12.9497 39.4258 12.1356 38.899 11.4555C38.3721 10.7754 37.6652 10.2568 36.8583 9.95835C36.0515 9.65995 35.1772 9.5938 34.3346 9.76741C33.4921 9.94102 32.7151 10.3474 32.092 10.9405C31.4688 11.5335 31.0245 12.2895 30.8094 13.1224C30.7591 13.3174 30.6708 13.5006 30.5497 13.6616C30.4286 13.8225 30.2769 13.958 30.1034 14.0603C29.9299 14.1627 29.7379 14.2298 29.5385 14.258C29.339 14.2861 29.1359 14.2747 28.9409 14.2243C28.7459 14.174 28.5626 14.0857 28.4017 13.9646C28.2408 13.8435 28.1053 13.6918 28.0029 13.5183C27.9006 13.3448 27.8335 13.1528 27.8053 12.9534C27.7772 12.7539 27.7886 12.5508 27.8389 12.3558C28.1374 11.2008 28.7014 10.1314 29.4859 9.23266C30.2704 8.33395 31.2539 7.63074 32.358 7.17899C33.4621 6.72724 34.6565 6.53941 35.846 6.63046C37.0354 6.72151 38.1873 7.08892 39.2098 7.70345C40.2323 8.31798 41.0972 9.16267 41.7359 10.1703C42.3745 11.178 42.7691 12.3207 42.8883 13.5077C43.0075 14.6947 42.8481 15.8932 42.4227 17.0077C41.9972 18.1222 41.3175 19.1221 40.4377 19.9277C42.5224 20.8303 44.3347 22.2627 45.6945 24.0826C45.8153 24.244 45.9031 24.4278 45.9527 24.6232C46.0024 24.8187 46.0131 25.022 45.984 25.2215C45.955 25.4211 45.8869 25.613 45.7836 25.7862C45.6804 25.9594 45.5439 26.1105 45.3821 26.2309ZM35.0563 38.0362C35.1672 38.2107 35.2417 38.4059 35.2753 38.6099C35.3088 38.8139 35.3008 39.0227 35.2516 39.2235C35.2024 39.4243 35.1131 39.6131 34.989 39.7786C34.865 39.944 34.7087 40.0826 34.5297 40.1861C34.3507 40.2896 34.1526 40.3558 33.9473 40.3807C33.742 40.4056 33.5339 40.3888 33.3353 40.3312C33.1367 40.2736 32.9518 40.1764 32.7917 40.0455C32.6317 39.9146 32.4998 39.7526 32.4039 39.5694C31.4381 37.934 30.0626 36.5787 28.4132 35.6372C26.7637 34.6957 24.8972 34.2005 22.998 34.2005C21.0987 34.2005 19.2323 34.6957 17.5828 35.6372C15.9333 36.5787 14.5579 37.934 13.592 39.5694C13.4962 39.7526 13.3643 39.9146 13.2042 40.0455C13.0442 40.1764 12.8593 40.2736 12.6607 40.3312C12.4621 40.3888 12.2539 40.4056 12.0487 40.3807C11.8434 40.3558 11.6453 40.2896 11.4663 40.1861C11.2873 40.0826 11.131 39.944 11.007 39.7786C10.8829 39.6131 10.7936 39.4243 10.7444 39.2235C10.6952 39.0227 10.6871 38.8139 10.7207 38.6099C10.7543 38.4059 10.8288 38.2107 10.9397 38.0362C12.4261 35.4823 14.6925 33.4725 17.4058 32.3022C15.879 31.1333 14.7569 29.5152 14.1973 27.6756C13.6376 25.8359 13.6685 23.8671 14.2856 22.046C14.9028 20.2248 16.0751 18.6428 17.6378 17.5223C19.2005 16.4019 21.0751 15.7993 22.998 15.7993C24.9209 15.7993 26.7954 16.4019 28.3582 17.5223C29.9209 18.6428 31.0932 20.2248 31.7103 22.046C32.3275 23.8671 32.3584 25.8359 31.7987 27.6756C31.2391 29.5152 30.117 31.1333 28.5902 32.3022C31.3035 33.4725 33.5699 35.4823 35.0563 38.0362ZM22.998 31.137C24.2109 31.137 25.3966 30.7773 26.4051 30.1035C27.4136 29.4296 28.1996 28.4718 28.6638 27.3512C29.128 26.2306 29.2494 24.9976 29.0128 23.808C28.7762 22.6183 28.1921 21.5256 27.3344 20.6679C26.4768 19.8103 25.384 19.2262 24.1944 18.9896C23.0048 18.7529 21.7717 18.8744 20.6511 19.3386C19.5305 19.8027 18.5727 20.5888 17.8989 21.5973C17.225 22.6058 16.8653 23.7915 16.8653 25.0044C16.8653 26.6309 17.5115 28.1907 18.6616 29.3408C19.8116 30.4909 21.3715 31.137 22.998 31.137ZM12.2659 20.4049C12.2659 19.9983 12.1043 19.6083 11.8168 19.3208C11.5293 19.0333 11.1393 18.8717 10.7327 18.8717C9.87246 18.8717 9.02948 18.6303 8.29952 18.1752C7.56955 17.72 6.98186 17.0693 6.6032 16.2969C6.22453 15.5245 6.07008 14.6613 6.15737 13.8055C6.24466 12.9497 6.5702 12.1356 7.09702 11.4555C7.62384 10.7754 8.33081 10.2568 9.13764 9.95835C9.94447 9.65995 10.8188 9.5938 11.6614 9.76741C12.5039 9.94102 13.2809 10.3474 13.904 10.9405C14.5271 11.5335 14.9715 12.2895 15.1865 13.1224C15.2882 13.5163 15.5422 13.8537 15.8926 14.0603C16.243 14.267 16.6612 14.326 17.0551 14.2243C17.449 14.1227 17.7864 13.8687 17.993 13.5183C18.1997 13.1679 18.2587 12.7497 18.157 12.3558C17.8585 11.2008 17.2946 10.1314 16.5101 9.23266C15.7255 8.33395 14.7421 7.63074 13.638 7.17899C12.5338 6.72724 11.3395 6.53941 10.15 6.63046C8.96054 6.72151 7.80872 7.08892 6.78621 7.70345C5.7637 8.31798 4.89873 9.16267 4.26012 10.1703C3.62152 11.178 3.2269 12.3207 3.10766 13.5077C2.98843 14.6947 3.14788 15.8932 3.57331 17.0077C3.99875 18.1222 4.67844 19.1221 5.55829 19.9277C3.47565 20.8312 1.66543 22.2635 0.307214 24.0826C0.0629878 24.4079 -0.0420121 24.8168 0.0153128 25.2196C0.0726378 25.6223 0.287592 25.9857 0.612887 26.2299C0.938183 26.4742 1.34717 26.5792 1.74989 26.5218C2.1526 26.4645 2.51604 26.2496 2.76027 25.9243C3.68436 24.6821 4.88717 23.6743 6.27189 22.982C7.65661 22.2896 9.18455 21.932 10.7327 21.9381C11.1393 21.9381 11.5293 21.7765 11.8168 21.489C12.1043 21.2015 12.2659 20.8115 12.2659 20.4049Z" fill="#FF751F"/>
</g>
</svg>
