<svg preserveAspectRatio="none" overflow="visible" style="display: block;" width="24" height="24" viewBox="0 0 24 24" fill="none" xmlns="http://www.w3.org/2000/svg">
<g id="Iconography">
<path id="Vector" fill-rule="evenodd" clip-rule="evenodd" d="M10.4335 2.55116C12.5082 2.50433 14.5228 3.26 16.0556 4.65907C17.5879 6.05858 18.5229 7.99682 18.6644 10.0673C18.7961 12.0005 18.2263 13.912 17.0692 15.455L21.1151 19.4994L21.2572 19.6737C21.2981 19.7351 21.3343 19.8016 21.3627 19.87C21.4198 20.0082 21.449 20.1585 21.4491 20.308L21.4271 20.5307C21.4126 20.6034 21.3912 20.6756 21.3627 20.7445C21.3053 20.883 21.2211 21.0092 21.1151 21.1151C21.0092 21.2211 20.883 21.3053 20.7445 21.3627C20.6064 21.4198 20.4575 21.449 20.308 21.4491C20.1585 21.449 20.0082 21.4198 19.87 21.3627C19.8016 21.3343 19.7351 21.2981 19.6737 21.2572L19.4994 21.1151L15.455 17.0692C13.912 18.2263 12.0005 18.7961 10.0673 18.6644C7.99682 18.5229 6.05858 17.5879 4.65907 16.0556C3.26 14.5228 2.50433 12.5082 2.55116 10.4335C2.59848 8.35828 3.4447 6.38028 4.91249 4.91249C6.38028 3.4447 8.35828 2.59848 10.4335 2.55116ZM11.7518 4.9623C10.6324 4.73983 9.47093 4.85382 8.4164 5.29042C7.36168 5.72737 6.45947 6.46821 5.82509 7.41738C5.19085 8.36664 4.85114 9.48374 4.85097 10.6254L4.85976 10.911C4.93206 12.3372 5.53001 13.6917 6.54433 14.7064C7.62652 15.7883 9.09516 16.3963 10.6254 16.3983C11.767 16.3982 12.8841 16.0613 13.8334 15.4271C14.7827 14.7928 15.5233 13.8906 15.9603 12.8358C16.3972 11.781 16.5111 10.6187 16.2885 9.49892C16.0656 8.37951 15.5149 7.35005 14.7079 6.54286C13.9007 5.73598 12.8713 5.18509 11.7518 4.9623Z" fill="#256428"/>
</g>
</svg>
